# xmcd
#
# Track frame offsets:
#	150
#	11217
#	27804
#	40549
#	57861
#	74226
#	90129
#	107858
#	117929
#	135539
#	152367
#
# Disc length: 2284 seconds
# Revision: 0
# Processed by: cddbd v1.5.2PL0 Copyright (c) Steve Scherf et al.
# Submitted via: dBpowerAMP V12.0
#
DISCID=8508ea0b
DTITLE=Various Artist - CRS 202
DYEAR=2017
DGENRE=Country
TTITLE0=Gayle O'Neil - Free As A Bird
TTITLE1=Ashley Cook - Gracemere Cattle Yards
TTITLE2=Jillian Lampkin - Here With Me
TTITLE3=Kelly Cork (Feat.Jen Mize) - Bad Weather
TTITLE4=Vanessa Bourne - Hurtin' Over You 
TTITLE5=Ruckus - Captain Kangaroo
TTITLE6=Ann Penman - Calvary
TTITLE7=Phil Doublet (Feat.Cameron Walsh) - Standoff
TTITLE8=Vanessa Delaine - Live For Today
TTITLE9=Tyson Colman and Michelle Walker - Couldn't Live Without You
TTITLE10=Stephen Brady - Just Like You
EXTD=
EXTT0=
EXTT1=
EXTT2=
EXTT3=
EXTT4=
EXTT5=
EXTT6=
EXTT7=
EXTT8=
EXTT9=
EXTT10=
PLAYORDER=
